<?xml version="1.0" standalone="no"?>
<!DOCTYPE svg PUBLIC "-//W3C//DTD SVG 20010904//EN"
 "http://www.w3.org/TR/2001/REC-SVG-20010904/DTD/svg10.dtd">
<svg version="1.0" xmlns="http://www.w3.org/2000/svg"
 width="1024.000000pt" height="1024.000000pt" viewBox="0 0 1024.000000 1024.000000"
 preserveAspectRatio="xMidYMid meet">

<g transform="translate(0.000000,1024.000000) scale(0.100000,-0.100000)"
fill="#000000" stroke="none">
<path d="M0 5120 l0 -5120 5120 0 5120 0 0 5120 0 5120 -5120 0 -5120 0 0
-5120z m3870 2691 c99 -52 109 -180 20 -255 -45 -38 -125 -37 -171 1 -72 61
-77 176 -10 231 53 43 109 51 161 23z m-472 -278 c36 -17 96 -73 503 -468 244
-237 415 -402 501 -482 l66 -63 567 0 c450 0 566 -3 563 -12 -3 -7 -38 -111
-77 -230 l-73 -218 -572 0 -572 0 -581 583 c-384 385 -588 596 -602 624 -50
101 -6 214 104 264 50 23 126 24 173 2z m3802 -81 c204 -63 328 -183 384 -371
20 -69 21 -235 2 -328 -44 -206 -150 -404 -304 -565 -66 -69 -163 -151 -210
-177 -13 -7 -12 -19 8 -92 19 -72 22 -100 17 -189 -16 -302 -180 -545 -462
-685 -166 -83 -185 -86 -714 -92 -449 -5 -464 -5 -456 13 4 11 37 107 74 214
36 107 67 197 69 200 2 3 119 7 261 10 250 5 258 6 306 30 88 46 147 167 113
236 -7 15 -26 37 -41 48 -27 20 -41 21 -278 21 -141 0 -249 4 -249 9 0 13 189
579 198 593 6 9 101 13 368 15 l361 3 41 27 c108 72 136 238 48 286 -29 16
-116 17 -1122 20 l-1090 2 -256 258 c-278 280 -284 288 -276 389 6 66 29 100
89 131 l44 22 1500 -2 1500 -3 75 -23z m-4222 -409 c47 -35 66 -70 66 -120 -1
-99 -69 -160 -168 -150 -41 4 -55 11 -82 40 -71 77 -51 202 40 243 40 18 111
12 144 -13z m413 -319 c16 -8 116 -99 222 -202 105 -103 290 -283 411 -400
l219 -212 578 0 c319 0 579 -3 579 -7 0 -9 -112 -355 -136 -420 l-16 -43 -582
0 -583 0 -479 483 c-502 504 -524 530 -524 613 0 38 26 104 52 134 65 74 176
97 259 54z m-464 -474 c37 -22 73 -86 73 -128 0 -130 -156 -205 -248 -120
-103 97 -42 268 97 268 28 0 59 -8 78 -20z m429 -336 c53 -36 109 -88 396
-371 l246 -243 601 0 c507 0 601 -2 601 -14 0 -15 -144 -438 -155 -456 -4 -7
-196 -10 -593 -10 l-588 0 -396 398 c-217 218 -402 411 -411 427 -39 77 -29
159 26 222 67 76 197 98 273 47z m-455 -499 c94 -60 89 -185 -11 -252 -91 -62
-214 15 -212 134 0 58 29 103 81 130 50 26 88 22 142 -12z m419 -302 c37 -24
88 -70 255 -228 83 -78 168 -157 189 -176 l39 -34 599 -3 c457 -3 599 -6 595
-15 -2 -7 -37 -108 -78 -224 l-73 -213 -532 0 c-315 0 -553 4 -584 10 -115 22
-139 40 -410 313 -140 141 -263 273 -273 294 -15 28 -18 52 -15 104 3 57 8 74
34 106 42 53 105 83 174 83 35 0 64 -6 80 -17z m-380 -2053 l0 -70 -165 0
-165 0 0 -60 0 -60 145 0 145 0 0 -65 0 -65 -145 0 -145 0 0 -65 0 -65 170 0
170 0 0 -70 0 -70 -252 2 -253 3 -3 315 c-1 173 0 320 3 327 3 10 62 13 250
13 l245 0 0 -70z m798 55 c131 -39 183 -168 103 -258 l-29 -31 48 -46 c79 -74
81 -162 6 -236 -61 -62 -95 -69 -341 -69 l-210 0 -3 328 -2 327 188 0 c141 0
202 -4 240 -15z m460 -117 l3 -128 139 0 140 0 0 130 0 130 80 0 80 0 0 -330
0 -330 -80 0 -80 0 0 130 0 130 -140 0 -140 0 0 -130 0 -130 -80 0 -80 0 0
330 0 331 78 -3 77 -3 3 -127z m1096 -149 c70 -154 136 -303 146 -330 l20 -49
-81 0 -80 0 -30 65 -29 65 -154 0 -153 0 -28 -65 -27 -65 -74 0 c-41 0 -74 4
-74 9 0 5 35 90 79 188 43 98 106 242 141 321 l62 142 77 0 77 0 128 -281z
m673 252 c96 -43 143 -117 143 -226 0 -82 -54 -165 -122 -187 -7 -3 22 -51 65
-111 l77 -107 -85 0 -85 0 -66 90 -66 90 -64 0 -64 0 0 -90 0 -90 -80 0 -80 0
0 331 0 331 188 -4 c170 -3 192 -6 239 -27z m650 12 c4 -10 66 -150 139 -310
73 -161 135 -302 139 -313 6 -19 2 -20 -78 -20 l-84 0 -24 63 -25 62 -156 3
-156 2 -27 -65 -28 -65 -82 0 -83 0 140 318 c77 174 145 323 150 330 7 8 38
12 90 12 66 0 80 -3 85 -17z m1388 -58 l0 -70 -102 -3 -103 -3 0 -254 0 -255
-80 0 -80 0 0 255 0 255 -210 0 -210 0 0 -255 0 -256 -82 3 -83 3 -1 240 c-1
132 -2 246 -3 253 -1 8 -25 12 -84 12 -46 0 -87 4 -92 9 -6 6 -8 39 -7 76 l4
65 566 -2 567 -3 0 -70z"/>
<path d="M3480 2930 l0 -70 83 0 c104 0 151 20 155 67 2 22 -3 37 -19 52 -20
18 -35 21 -121 21 l-98 0 0 -70z"/>
<path d="M3480 2675 l0 -77 114 3 c130 5 156 17 156 74 0 57 -26 70 -156 73
l-114 4 0 -77z"/>
<path d="M5040 2853 c-23 -54 -44 -104 -47 -110 -4 -10 18 -13 91 -13 53 0 96
3 96 6 0 9 -82 198 -90 207 -4 4 -26 -36 -50 -90z"/>
<path d="M5700 2890 l0 -100 94 0 c79 0 97 3 119 20 35 28 44 78 22 123 -21
45 -54 57 -156 57 l-79 0 0 -100z"/>
<path d="M6499 2914 c-12 -27 -34 -78 -50 -113 -16 -35 -27 -67 -24 -71 2 -4
47 -8 100 -9 73 -2 95 1 95 11 0 12 -87 218 -96 227 -2 2 -13 -18 -25 -45z"/>
</g>
</svg>
